<svg xmlns="http://www.w3.org/2000/svg" data-name="Layer 1" viewBox="0 0 100 100" x="0px" y="0px"><title>A</title><path d="M50,5.00146c-24.27265,0-44.02,17.15179-44.02,38.23314a34.52966,34.52966,0,0,0,7.09791,20.83623l2.02679,27.09482a4.10208,4.10208,0,0,0,2.63615,3.55262,4.16556,4.16556,0,0,0,1.50483.28319A4.10543,4.10543,0,0,0,22.08,93.86185L36.95892,79.7588A50.15188,50.15188,0,0,0,50,81.46773c24.27265,0,44.02005-17.15179,44.02005-38.23313S74.27265,5.00146,50,5.00146Zm0,70.46646a43.97088,43.97088,0,0,1-12.97516-1.93451l-1.67524-.51658L20.79538,86.81228,18.92582,61.817l-.56688-.7197a28.70878,28.70878,0,0,1-6.37919-17.8627c0-17.77384,17.0556-32.23333,38.02025-32.23333S88.02025,25.46076,88.02025,43.2346,70.96465,75.46792,50,75.46792Z"/><circle cx="69.04546" cy="43.23423" r="5.48316"/><path d="M50,37.75107a5.48316,5.48316,0,1,0,5.48328,5.48316A5.48317,5.48317,0,0,0,50,37.75107Z"/><circle cx="30.95404" cy="43.23401" r="5.48334"/></svg>
